<svg id="Capa_2" data-name="Capa 2" xmlns="http://www.w3.org/2000/svg" viewBox="0 0 46.37 15.18"><defs><style>.cls-1{fill:#fff;}</style></defs><title>cafecito</title><path class="cls-1" d="M30.72,3.82a3.76,3.76,0,0,0-3.11,1.69h0V0H25.29l0,0V14.89h2.18V13.41h0c.69,1.42,2.2,1.77,3.61,1.77,3.09,0,4.5-2.73,4.5-5.63C35.6,6.4,34,3.82,30.72,3.82Zm-.31,9.49c-1.85,0-2.92-1.63-2.92-3.8s1-3.82,2.92-3.82h0c1.9,0,2.89,1.86,2.89,3.82S32.51,13.31,30.41,13.31Z"/><path class="cls-1" d="M41.59,13.31c-2,0-2.76-1.9-2.76-3.69,0-3.28,1.67-3.93,2.86-3.93a2.23,2.23,0,0,1,2.38,2h2.3c-.22-2.65-2.28-3.9-4.7-3.9-3.42,0-5.14,2.54-5.14,5.8s1.8,5.56,5.06,5.56c2.68,0,4.36-1.54,4.78-4.33h-2.3A2.51,2.51,0,0,1,41.59,13.31Z"/><polygon class="cls-1" points="25.27 0 8.05 0 0 14.86 17.24 14.86 25.27 0.03 25.27 0 25.27 0"/><polygon class="cls-1" points="25.27 0 25.27 0 25.27 0.03 25.29 0 25.27 0"/></svg>