<svg id="Capa_2" data-name="Capa 2" xmlns="http://www.w3.org/2000/svg" viewBox="0 0 18.01 16.98"><defs><style>.cls-1{fill:none;}.cls-2{fill:#fff;}</style></defs><title>cafecito</title><path class="cls-1" d="M9.33,4.42a4,4,0,0,0-4,4.11,4,4,0,0,0,4,4.1,3.78,3.78,0,0,0,2.19-.7l1.68.68-.64-1.74a4.15,4.15,0,0,0,.72-2.34A4,4,0,0,0,9.33,4.42Z"/><path class="cls-1" d="M9.32,2.77A5.53,5.53,0,0,0,4.2,6.35H3.34a2.14,2.14,0,0,0,0,4.27h.81a5.52,5.52,0,0,0,5.13,3.63,5.31,5.31,0,0,0,3.19-1.06l-.92-.37a4.6,4.6,0,0,1-2.27.6A4.86,4.86,0,0,1,4.65,7.7a4.8,4.8,0,0,1,3.89-4,4.79,4.79,0,0,1,5.51,4.85,4.93,4.93,0,0,1-.62,2.43l.35,1a5.86,5.86,0,0,0,1.07-3.39A5.64,5.64,0,0,0,9.32,2.77Zm-5.43,7H3.26a1.29,1.29,0,0,1,0-2.58H3.9a6.26,6.26,0,0,0-.14,1.31A5.88,5.88,0,0,0,3.89,9.78Z"/><path class="cls-2" d="M3.25,7.2a1.29,1.29,0,0,0,0,2.58h.63a5.88,5.88,0,0,1-.13-1.27A6.26,6.26,0,0,1,3.9,7.2Z"/><path class="cls-2" d="M13.11,1H5.44A3.46,3.46,0,0,0,2.06,4.53V6.05a2.74,2.74,0,0,0,0,4.94V12.5A3.46,3.46,0,0,0,5.44,16h7.67A3.46,3.46,0,0,0,16.5,12.5v-8A3.46,3.46,0,0,0,13.11,1Zm.09,11.59-1.68-.68a3.78,3.78,0,0,1-2.19.7,4,4,0,0,1-4-4.1,4,4,0,0,1,4-4.11,4,4,0,0,1,3.95,4.11,4.15,4.15,0,0,1-.72,2.34Zm.58-.71-.35-1a4.93,4.93,0,0,0,.62-2.43A4.79,4.79,0,0,0,8.54,3.66a4.8,4.8,0,0,0-3.89,4,4.86,4.86,0,0,0,4.67,5.72,4.6,4.6,0,0,0,2.27-.6l.92.37a5.31,5.31,0,0,1-3.19,1.06,5.52,5.52,0,0,1-5.13-3.63H3.38a2.14,2.14,0,0,1,0-4.27H4.2A5.53,5.53,0,0,1,9.32,2.77a5.64,5.64,0,0,1,5.53,5.74A5.86,5.86,0,0,1,13.78,11.9Z"/></svg>