<svg id="Capa_2" data-name="Capa 2" xmlns="http://www.w3.org/2000/svg" viewBox="0 0 15.98 16.98"><defs><style>.cls-1{fill:#fff;}</style></defs><title>cafecito</title><path class="cls-1" d="M15.46,5.43a5.68,5.68,0,0,0-.35-1.81,3.73,3.73,0,0,0-.87-1.33,3.58,3.58,0,0,0-1.33-.86,5.42,5.42,0,0,0-1.82-.35C10.29,1,10,1,8,1s-2.29,0-3.09,0a5.42,5.42,0,0,0-1.82.35,3.58,3.58,0,0,0-1.33.86A3.73,3.73,0,0,0,.89,3.62,5.44,5.44,0,0,0,.55,5.43C.51,6.23.5,6.48.5,8.52s0,2.28.05,3.08a5.39,5.39,0,0,0,.34,1.81,3.73,3.73,0,0,0,.87,1.33,3.58,3.58,0,0,0,1.33.86A5.42,5.42,0,0,0,4.91,16c.8,0,1,0,3.09,0s2.29,0,3.09,0a5.42,5.42,0,0,0,1.82-.35,3.58,3.58,0,0,0,1.33-.86,3.73,3.73,0,0,0,.87-1.33,5.62,5.62,0,0,0,.35-1.81c0-.8,0-1,0-3.08S15.49,6.23,15.46,5.43ZM14.1,11.54a4.21,4.21,0,0,1-.25,1.39,2.46,2.46,0,0,1-.56.86,2.5,2.5,0,0,1-.87.56A4.15,4.15,0,0,1,11,14.6c-.79,0-1,.05-3,.05s-2.24,0-3-.05a4.15,4.15,0,0,1-1.39-.25,2.5,2.5,0,0,1-.87-.56,2.46,2.46,0,0,1-.56-.86,4.42,4.42,0,0,1-.26-1.39c0-.79,0-1,0-3s0-2.24,0-3A4.42,4.42,0,0,1,2.15,4.1a2.46,2.46,0,0,1,.56-.86,2.5,2.5,0,0,1,.87-.56A4.15,4.15,0,0,1,5,2.43c.79,0,1-.05,3-.05s2.24,0,3,.05a4.15,4.15,0,0,1,1.39.25,2.5,2.5,0,0,1,.87.56,2.46,2.46,0,0,1,.56.86,4.21,4.21,0,0,1,.25,1.39c0,.79.05,1,.05,3S14.14,10.75,14.1,11.54Z"/><path class="cls-1" d="M8,4.67a3.85,3.85,0,1,0,3.85,3.85A3.85,3.85,0,0,0,8,4.67ZM8,11a2.5,2.5,0,1,1,2.5-2.49A2.5,2.5,0,0,1,8,11Z"/><path class="cls-1" d="M12,3.62a.9.9,0,0,0,0,1.8.9.9,0,1,0,0-1.8Z"/></svg>