<svg id="Capa_2" data-name="Capa 2" xmlns="http://www.w3.org/2000/svg" viewBox="0 0 16.96 16.99"><defs><style>.cls-1{fill:#fff;}</style></defs><title>cafecito</title><path class="cls-1" d="M9,1a7.5,7.5,0,1,0,7.5,7.5A7.5,7.5,0,0,0,9,1Zm3.45,10.83a.44.44,0,0,1-.64.15,8.61,8.61,0,0,0-6.6-.71.46.46,0,1,1-.22-.9,9.57,9.57,0,0,1,7.27.83A.44.44,0,0,1,12.45,11.83Zm.9-2.06a.57.57,0,0,1-.79.19A9.7,9.7,0,0,0,5.1,9.1a.58.58,0,0,1-.71-.38A.56.56,0,0,1,4.76,8,11,11,0,0,1,13.2,9,.53.53,0,0,1,13.35,9.77Zm.07-2.1a12.44,12.44,0,0,0-8.69-.86.71.71,0,0,1-.87-.45.7.7,0,0,1,.45-.86,13.92,13.92,0,0,1,9.83,1,.72.72,0,0,1,.26,1A.78.78,0,0,1,13.42,7.67Z"/></svg>