<svg id="Capa_2" data-name="Capa 2" xmlns="http://www.w3.org/2000/svg" viewBox="0 0 21.08 16.83"><defs><style>.cls-1{fill:#fff;}</style></defs><title>cafecito</title><path class="cls-1" d="M19.9,3.36a2.56,2.56,0,0,0-1.73-1.88C16.64,1,10.51,1,10.51,1s-6.14,0-7.67.44A2.56,2.56,0,0,0,1.11,3.36,29.87,29.87,0,0,0,.7,8.47a30,30,0,0,0,.41,5.12,2.6,2.6,0,0,0,1.73,1.88c1.53.44,7.67.44,7.67.44s6.13,0,7.66-.44a2.6,2.6,0,0,0,1.73-1.88,30,30,0,0,0,.41-5.12A29.87,29.87,0,0,0,19.9,3.36ZM8.5,11.61V5.33l5.12,3.14Z"/></svg>